<?xml version="1.0" encoding="utf-8"?>
<!-- Generator: Adobe Illustrator 21.1.0, SVG Export Plug-In . SVG Version: 6.00 Build 0)  -->
<svg version="1.1" id="Layer_1" xmlns="http://www.w3.org/2000/svg" xmlns:xlink="http://www.w3.org/1999/xlink" x="0px" y="0px"
	 width="23px" height="23px" viewBox="0 0 23 23" enable-background="new 0 0 23 23" xml:space="preserve">
<title>Language_icon_3</title>
<g>
	<defs>
		<circle id="SVGID_1_" cx="11.5" cy="11.48" r="11.01"/>
	</defs>
	<clipPath id="SVGID_2_">
		<use xlink:href="#SVGID_1_"  overflow="visible"/>
	</clipPath>
	<g clip-path="url(#SVGID_2_)">
		<rect x="0.08" y="0" fill="#3C9242" width="22.58" height="22.96"/>
		<g>
			<defs>
				<rect id="SVGID_3_" x="-0.74" y="4.33" width="24.48" height="14.25"/>
			</defs>
			<clipPath id="SVGID_4_">
				<use xlink:href="#SVGID_3_"  overflow="visible"/>
			</clipPath>
			<g clip-path="url(#SVGID_4_)">
				<rect x="-0.74" y="4.33" fill="#3C9242" width="24.48" height="14.25"/>
				<polygon fill="#EDC226" points="3.02,11.45 11.5,16.86 19.98,11.45 11.5,6.05 				"/>
				<g>
					<defs>
						<rect id="SVGID_5_" x="-0.74" y="4.33" width="24.48" height="14.25"/>
					</defs>
					<clipPath id="SVGID_6_">
						<use xlink:href="#SVGID_5_"  overflow="visible"/>
					</clipPath>
					<g clip-path="url(#SVGID_6_)">
						<path fill="#2D146E" d="M15.06,11.45c0.006,1.966-1.584,3.564-3.55,3.57c-1.966,0.006-3.564-1.584-3.57-3.55
							s1.584-3.564,3.55-3.57c0.003,0,0.007,0,0.01,0c1.964,0.005,3.555,1.596,3.56,3.56"/>
						<path fill="#FFFFFF" d="M9.46,9.94c-0.4,0-0.84,0-1.25,0.08c-0.074,0.18-0.128,0.368-0.16,0.56
							c0.462-0.082,0.931-0.122,1.4-0.12c2.01-0.015,3.952,0.728,5.44,2.08c0.055-0.176,0.092-0.357,0.11-0.54
							c-1.553-1.312-3.527-2.022-5.56-2"/>
						<path fill="#3C9242" d="M8.46,10.41c0.077-0.009,0.132-0.078,0.123-0.155c-0.002-0.016-0.006-0.031-0.013-0.045
							c0-0.08-0.07-0.16-0.16-0.12s-0.16,0.08-0.12,0.16c-0.012,0.076,0.04,0.148,0.117,0.16c0.014,0.002,0.029,0.002,0.043,0
							 M8.45,10.34c0.023,0.008,0.047,0.008,0.07,0c-0.011-0.058-0.035-0.113-0.07-0.16c-0.064,0.005-0.115,0.056-0.12,0.12
							c0,0.08,0,0.12,0.12,0.08"/>
						<path fill="#3C9242" d="M8.74,10.38L8.74,10.38v-0.12H8.9c0,0,0.08-0.08,0.08-0.12S9,10,8.9,10H8.7L8.74,10.38z M8.74,10.18
							H8.9l0,0l0,0H8.78H8.74z"/>
						<path fill="#3C9242" d="M9,10.38c0,0,0-0.16-0.08-0.16H8.86c0.08,0,0.08,0.12,0.08,0.12"/>
						<path fill="#3C9242" d="M9.19,10.38h0.16c0.06,0.006,0.114-0.039,0.12-0.099c0.001-0.007,0.001-0.014,0-0.021l0,0
							c0-0.08,0-0.16-0.12-0.16h-0.2L9.19,10.38z M9.19,10.3h0.12c0.042-0.004,0.076-0.038,0.08-0.08l0,0c0,0,0-0.08-0.12-0.08H9.22
							L9.19,10.3z"/>
						<polygon fill="#3C9242" points="9.58,10.34 9.9,10.38 9.9,10.3 9.66,10.3 9.66,10.22 9.87,10.22 9.87,10.18 9.66,10.13 
							9.66,10.09 9.9,10.09 9.9,10.02 9.62,10.02 						"/>
						<polygon fill="#3C9242" points="10.02,10.38 10.06,10.38 10.1,10.13 10.14,10.38 10.22,10.38 10.3,10.18 10.26,10.41 
							10.34,10.41 10.38,10.05 10.26,10.05 10.18,10.3 10.14,10.05 10.06,10.02 						"/>
						<polygon fill="#3C9242" points="10.74,10.46 10.98,10.49 10.98,10.46 10.78,10.41 10.82,10.34 10.98,10.34 10.98,10.3 
							10.82,10.26 10.82,10.22 11.02,10.26 11.02,10.18 10.78,10.13 						"/>
						<path fill="#3C9242" d="M11.38,10.58L11.38,10.58V10.5h0.12c0.07,0,0.11,0,0.16-0.08c-0.023-0.039-0.049-0.076-0.08-0.11h-0.2
							V10.58z M11.5,10.42h0.11l0,0l0,0H11.5z"/>
						<path fill="#3C9242" d="M11.78,10.7h0.08v-0.12h0.11h0.12c0,0,0-0.12,0-0.16h-0.2L11.78,10.7z M11.9,10.54h0.11
							c0.026,0.008,0.054,0.008,0.08,0l0,0h-0.12H11.9z"/>
						<path fill="#3C9242" d="M12.06,10.77v-0.16h-0.08c0.08,0,0,0.16,0,0.2"/>
						<path fill="#3C9242" d="M12.34,10.9c0.087,0.003,0.168-0.043,0.21-0.12c0-0.07,0-0.2-0.08-0.2
							c-0.068-0.037-0.153-0.012-0.19,0.056c-0.004,0.008-0.008,0.016-0.01,0.024C12.234,10.746,12.263,10.846,12.34,10.9
							 M12.34,10.82c0,0,0.08,0,0.12-0.08c0.011-0.036,0.011-0.074,0-0.11c-0.08,0-0.12,0-0.16,0.08s0,0.11,0.08,0.11"/>
						<path fill="#3C9242" d="M12.74,11.06c0.08,0,0.2,0,0.2-0.12c0.017-0.087-0.039-0.171-0.126-0.188
							c-0.063-0.013-0.128,0.014-0.164,0.068c-0.039,0.092-0.005,0.198,0.08,0.25 M12.73,10.99c0,0,0.08,0,0.12-0.08
							c0.012-0.039,0.012-0.081,0-0.12c0,0-0.12,0-0.12,0.08S12.73,10.99,12.73,10.99"/>
						<polygon fill="#3C9242" points="12.82,10.9 12.95,10.94 12.95,10.98 12.82,10.94 						"/>
						<polygon fill="#3C9242" points="12.9,10.94 12.95,10.94 12.9,11.09 12.86,11.09 						"/>
						<path fill="#3C9242" d="M13,11.13L13,11.13v-0.11l0.12,0.07h0.16c0.025-0.032,0.025-0.078,0-0.11l-0.24-0.12L13,11.13z
							 M13.12,11.02h0.12l0,0c0,0,0,0,0-0.08h-0.11L13.12,11.02z"/>
						<path fill="#3C9242" d="M13.27,11.3c0-0.08,0.07-0.16,0-0.2h-0.08c0.08,0.07,0,0.16,0,0.2"/>
						<polygon fill="#3C9242" points="13.38,11.34 13.66,11.49 13.66,11.45 13.46,11.34 13.5,11.26 13.66,11.34 13.7,11.3 
							13.54,11.22 13.59,11.13 13.78,11.26 13.82,11.22 13.54,11.06 						"/>
						<path fill="#3C9242" d="M13.9,11.54L13.9,11.54h0.07c0.08-0.08-0.16-0.16-0.07-0.24s0.16,0,0.16,0
							c0.074,0.024,0.114,0.103,0.09,0.176c-0.003,0.008-0.006,0.016-0.01,0.024h-0.08c0.02-0.023,0.02-0.057,0-0.08h-0.08
							c0,0,0.16,0.12,0.08,0.25c-0.036,0.011-0.074,0.011-0.11,0c-0.12-0.08-0.16-0.163-0.12-0.25L13.9,11.54z"/>
						<path fill="#3C9242" d="M14.22,11.77c0,0,0,0,0.08,0.08h0.07c0,0-0.2-0.16-0.11-0.24s0.16,0,0.2,0s0.08,0.08,0,0.16h-0.08l0,0
							c0,0-0.08-0.08-0.08,0s0.16,0.11,0.08,0.24s-0.11,0-0.2,0s-0.08-0.12,0-0.2L14.22,11.77z"/>
						<path fill="#3C9242" d="M14.58,12.13c0.07,0.08,0.16,0,0.24,0s0-0.16,0-0.2s-0.16,0-0.2,0c-0.011,0.053-0.011,0.107,0,0.16
							 M14.7,12.09c0.052,0.015,0.108,0.015,0.16,0c0,0,0-0.08,0-0.12s-0.12,0-0.12,0s-0.07,0.12,0,0.16"/>
						<polygon fill="#FFFFFF" points="8.58,10.66 8.54,10.81 8.62,10.81 						"/>
						<polygon fill="#FFFFFF" points="8.58,10.66 8.62,10.81 8.54,10.81 						"/>
						<polygon fill="#FFFFFF" points="8.74,10.77 8.58,10.77 8.58,10.86 						"/>
						<polygon fill="#FFFFFF" points="8.74,10.77 8.62,10.86 8.58,10.81 						"/>
						<polygon fill="#FFFFFF" points="8.46,10.77 8.58,10.86 8.62,10.81 						"/>
						<polygon fill="#FFFFFF" points="8.46,10.77 8.58,10.77 8.58,10.86 						"/>
						<polygon fill="#FFFFFF" points="8.66,10.94 8.62,10.81 8.54,10.81 						"/>
						<polygon fill="#FFFFFF" points="8.66,10.94 8.54,10.86 8.62,10.77 						"/>
						<polygon fill="#FFFFFF" points="8.51,10.94 8.62,10.86 8.58,10.77 						"/>
						<polygon fill="#FFFFFF" points="8.51,10.94 8.54,10.81 8.62,10.81 						"/>
						<polygon fill="#FFFFFF" points="8.9,12.18 8.86,12.34 8.94,12.34 						"/>
						<polygon fill="#FFFFFF" points="8.9,12.18 8.94,12.34 8.86,12.34 						"/>
						<polygon fill="#FFFFFF" points="9.06,12.26 8.9,12.26 8.9,12.34 						"/>
						<polygon fill="#FFFFFF" points="9.06,12.26 8.94,12.38 8.86,12.3 						"/>
						<polygon fill="#FFFFFF" points="8.78,12.26 8.86,12.38 8.94,12.3 						"/>
						<polygon fill="#FFFFFF" points="8.78,12.26 8.9,12.26 8.9,12.34 						"/>
						<polygon fill="#FFFFFF" points="8.98,12.45 8.94,12.3 8.86,12.34 						"/>
						<polygon fill="#FFFFFF" points="8.98,12.45 8.86,12.34 8.9,12.3 						"/>
						<polygon fill="#FFFFFF" points="8.82,12.45 8.94,12.34 8.9,12.3 						"/>
						<polygon fill="#FFFFFF" points="8.82,12.45 8.86,12.3 8.94,12.34 						"/>
						<polygon fill="#FFFFFF" points="8.46,12.54 8.42,12.66 8.46,12.66 						"/>
						<polygon fill="#FFFFFF" points="8.46,12.54 8.51,12.66 8.46,12.66 						"/>
						<polygon fill="#FFFFFF" points="8.54,12.62 8.46,12.62 8.46,12.66 						"/>
						<polygon fill="#FFFFFF" points="8.54,12.62 8.46,12.66 8.46,12.62 						"/>
						<polygon fill="#FFFFFF" points="8.38,12.62 8.46,12.66 8.46,12.62 						"/>
						<polygon fill="#FFFFFF" points="8.38,12.62 8.46,12.62 8.46,12.66 						"/>
						<polygon fill="#FFFFFF" points="8.54,12.74 8.51,12.62 8.46,12.66 						"/>
						<polygon fill="#FFFFFF" points="8.54,12.74 8.46,12.66 8.46,12.62 						"/>
						<polygon fill="#FFFFFF" points="8.42,12.74 8.51,12.66 8.46,12.62 						"/>
						<polygon fill="#FFFFFF" points="8.42,12.74 8.46,12.62 8.46,12.66 						"/>
						<polygon fill="#FFFFFF" points="9.26,12.02 9.22,12.1 9.26,12.1 						"/>
						<polygon fill="#FFFFFF" points="9.34,12.1 9.26,12.13 9.26,12.1 						"/>
						<polygon fill="#FFFFFF" points="9.19,12.1 9.26,12.13 9.26,12.1 						"/>
						<polygon fill="#FFFFFF" points="9.3,12.18 9.26,12.1 9.26,12.1 						"/>
						<polygon fill="#FFFFFF" points="9.3,12.18 9.26,12.1 9.26,12.1 						"/>
						<polygon fill="#FFFFFF" points="9.22,12.18 9.26,12.1 9.26,12.1 						"/>
						<polygon fill="#FFFFFF" points="9.22,12.18 9.22,12.1 9.26,12.1 						"/>
						<polygon fill="#FFFFFF" points="9.66,12.54 9.58,12.66 9.66,12.7 						"/>
						<polygon fill="#FFFFFF" points="9.66,12.54 9.7,12.66 9.62,12.7 						"/>
						<polygon fill="#FFFFFF" points="9.74,12.66 9.66,12.66 9.66,12.7 						"/>
						<polygon fill="#FFFFFF" points="9.74,12.66 9.66,12.7 9.62,12.66 						"/>
						<polygon fill="#FFFFFF" points="9.54,12.66 9.62,12.7 9.66,12.66 						"/>
						<polygon fill="#FFFFFF" points="9.54,12.66 9.66,12.66 9.66,12.7 						"/>
						<polygon fill="#FFFFFF" points="9.74,12.78 9.66,12.66 9.62,12.66 						"/>
						<polygon fill="#FFFFFF" points="9.74,12.78 9.62,12.7 9.66,12.66 						"/>
						<polygon fill="#FFFFFF" points="9.58,12.78 9.66,12.7 9.62,12.66 						"/>
						<polygon fill="#FFFFFF" points="9.58,12.78 9.62,12.66 9.66,12.66 						"/>
						<polygon fill="#FFFFFF" points="9.54,12.9 9.5,13.02 9.58,13.06 						"/>
						<polygon fill="#FFFFFF" points="9.54,12.9 9.58,13.02 9.5,13.06 						"/>
						<polygon fill="#FFFFFF" points="9.66,12.98 9.54,12.98 9.54,13.06 						"/>
						<polygon fill="#FFFFFF" points="9.66,12.98 9.58,13.06 9.5,13.02 						"/>
						<polygon fill="#FFFFFF" points="9.42,12.98 9.5,13.06 9.58,13.02 						"/>
						<polygon fill="#FFFFFF" points="9.42,12.98 9.54,12.98 9.54,13.06 						"/>
						<polygon fill="#FFFFFF" points="9.62,13.13 9.58,13.02 9.5,13.02 						"/>
						<polygon fill="#FFFFFF" points="9.62,13.13 9.5,13.06 9.54,13.02 						"/>
						<polygon fill="#FFFFFF" points="9.46,13.13 9.58,13.06 9.54,13.02 						"/>
						<polygon fill="#FFFFFF" points="9.46,13.13 9.5,13.02 9.58,13.02 						"/>
						<polygon fill="#FFFFFF" points="12.62,10.22 12.54,10.34 12.62,10.38 						"/>
						<polygon fill="#FFFFFF" points="12.62,10.22 12.66,10.34 12.59,10.38 						"/>
						<polygon fill="#FFFFFF" points="12.74,10.3 12.62,10.3 12.62,10.38 						"/>
						<polygon fill="#FFFFFF" points="12.74,10.3 12.62,10.41 12.59,10.34 						"/>
						<polygon fill="#FFFFFF" points="12.46,10.3 12.59,10.41 12.62,10.34 						"/>
						<polygon fill="#FFFFFF" points="12.46,10.3 12.62,10.3 12.62,10.38 						"/>
						<polygon fill="#FFFFFF" points="12.7,10.49 12.66,10.34 12.59,10.34 						"/>
						<polygon fill="#FFFFFF" points="12.7,10.49 12.59,10.38 12.62,10.34 						"/>
						<polygon fill="#FFFFFF" points="12.5,10.49 12.62,10.38 12.59,10.34 						"/>
						<polygon fill="#FFFFFF" points="12.5,10.49 12.59,10.34 12.62,10.34 						"/>
						<polygon fill="#FFFFFF" points="13.98,12.58 13.95,12.7 14.02,12.74 						"/>
						<polygon fill="#FFFFFF" points="13.98,12.58 14.06,12.7 13.98,12.74 						"/>
						<polygon fill="#FFFFFF" points="14.14,12.66 13.98,12.66 13.98,12.74 						"/>
						<polygon fill="#FFFFFF" points="14.14,12.66 14.02,12.74 13.98,12.7 						"/>
						<polygon fill="#FFFFFF" points="13.86,12.66 13.98,12.74 14.02,12.7 						"/>
						<polygon fill="#FFFFFF" points="13.86,12.66 14.02,12.66 14.02,12.74 						"/>
						<polygon fill="#FFFFFF" points="14.1,12.81 14.06,12.7 13.98,12.74 						"/>
						<polygon fill="#FFFFFF" points="14.1,12.81 13.98,12.74 14.02,12.7 						"/>
						<polygon fill="#FFFFFF" points="13.9,12.81 14.02,12.74 13.98,12.7 						"/>
						<polygon fill="#FFFFFF" points="13.9,12.81 13.95,12.7 14.02,12.74 						"/>
						<polygon fill="#FFFFFF" points="14.5,12.66 14.46,12.74 14.5,12.74 						"/>
						<polygon fill="#FFFFFF" points="14.5,12.66 14.54,12.74 14.46,12.74 						"/>
						<polygon fill="#FFFFFF" points="14.59,12.74 14.5,12.74 14.5,12.78 						"/>
						<polygon fill="#FFFFFF" points="14.59,12.74 14.5,12.78 14.46,12.74 						"/>
						<polygon fill="#FFFFFF" points="14.38,12.74 14.46,12.78 14.5,12.74 						"/>
						<polygon fill="#FFFFFF" points="14.38,12.74 14.5,12.74 14.5,12.78 						"/>
						<polygon fill="#FFFFFF" points="14.54,12.81 14.54,12.74 14.46,12.74 						"/>
						<polygon fill="#FFFFFF" points="14.54,12.81 14.46,12.78 14.5,12.74 						"/>
						<polygon fill="#FFFFFF" points="14.42,12.81 14.54,12.78 14.5,12.74 						"/>
						<polygon fill="#FFFFFF" points="14.42,12.81 14.46,12.74 14.5,12.74 						"/>
						<polygon fill="#FFFFFF" points="14.14,12.9 14.1,13.02 14.18,13.06 						"/>
						<polygon fill="#FFFFFF" points="14.14,12.9 14.18,13.02 14.14,13.06 						"/>
						<polygon fill="#FFFFFF" points="14.27,12.98 14.14,12.98 14.14,13.06 						"/>
						<polygon fill="#FFFFFF" points="14.27,12.98 14.14,13.06 14.14,13.02 						"/>
						<polygon fill="#FFFFFF" points="14.02,12.98 14.14,13.06 14.18,13.02 						"/>
						<polygon fill="#FFFFFF" points="14.02,12.98 14.14,12.98 14.14,13.06 						"/>
						<polygon fill="#FFFFFF" points="14.22,13.13 14.18,13.02 14.14,13.02 						"/>
						<polygon fill="#FFFFFF" points="14.22,13.13 14.1,13.06 14.14,13.02 						"/>
						<polygon fill="#FFFFFF" points="14.06,13.13 14.18,13.06 14.14,13.02 						"/>
						<polygon fill="#FFFFFF" points="14.06,13.13 14.1,13.02 14.18,13.02 						"/>
						<polygon fill="#FFFFFF" points="13.27,13.66 13.27,13.78 13.3,13.78 						"/>
						<polygon fill="#FFFFFF" points="13.27,13.66 13.34,13.78 13.27,13.78 						"/>
						<polygon fill="#FFFFFF" points="13.42,13.74 13.27,13.74 13.27,13.81 						"/>
						<polygon fill="#FFFFFF" points="13.42,13.74 13.3,13.81 13.27,13.78 						"/>
						<polygon fill="#FFFFFF" points="13.18,13.74 13.27,13.81 13.3,13.78 						"/>
						<polygon fill="#FFFFFF" points="13.18,13.74 13.3,13.74 13.3,13.81 						"/>
						<polygon fill="#FFFFFF" points="13.34,13.86 13.34,13.78 13.27,13.78 						"/>
						<polygon fill="#FFFFFF" points="13.34,13.86 13.27,13.81 13.3,13.78 						"/>
						<polygon fill="#FFFFFF" points="13.22,13.86 13.3,13.81 13.27,13.78 						"/>
						<polygon fill="#FFFFFF" points="13.22,13.86 13.27,13.78 13.3,13.78 						"/>
						<polygon fill="#FFFFFF" points="13.27,14.02 13.27,14.14 13.3,14.14 						"/>
						<polygon fill="#FFFFFF" points="13.27,14.02 13.3,14.14 13.27,14.14 						"/>
						<polygon fill="#FFFFFF" points="13.38,14.1 13.27,14.1 13.27,14.18 						"/>
						<polygon fill="#FFFFFF" points="13.38,14.1 13.3,14.18 13.27,14.14 						"/>
						<polygon fill="#FFFFFF" points="13.18,14.1 13.27,14.18 13.3,14.14 						"/>
						<polygon fill="#FFFFFF" points="13.18,14.1 13.27,14.1 13.27,14.18 						"/>
						<polygon fill="#FFFFFF" points="13.34,14.22 13.3,14.14 13.27,14.14 						"/>
						<polygon fill="#FFFFFF" points="13.34,14.22 13.27,14.18 13.3,14.1 						"/>
						<polygon fill="#FFFFFF" points="13.22,14.22 13.3,14.18 13.27,14.1 						"/>
						<polygon fill="#FFFFFF" points="13.22,14.22 13.27,14.14 13.3,14.14 						"/>
						<polygon fill="#FFFFFF" points="13.66,13.38 13.63,13.49 13.66,13.49 						"/>
						<polygon fill="#FFFFFF" points="13.66,13.38 13.66,13.49 13.63,13.49 						"/>
						<polygon fill="#FFFFFF" points="13.74,13.46 13.63,13.46 13.63,13.54 						"/>
						<polygon fill="#FFFFFF" points="13.74,13.46 13.66,13.54 13.63,13.49 						"/>
						<polygon fill="#FFFFFF" points="13.54,13.46 13.63,13.54 13.66,13.49 						"/>
						<polygon fill="#FFFFFF" points="13.54,13.46 13.66,13.46 13.66,13.54 						"/>
						<polygon fill="#FFFFFF" points="13.7,13.58 13.66,13.49 13.63,13.49 						"/>
						<polygon fill="#FFFFFF" points="13.7,13.58 13.63,13.54 13.66,13.46 						"/>
						<polygon fill="#FFFFFF" points="13.59,13.58 13.66,13.54 13.63,13.46 						"/>
						<polygon fill="#FFFFFF" points="13.59,13.58 13.63,13.49 13.66,13.49 						"/>
						<polygon fill="#FFFFFF" points="13.9,13.18 13.9,13.3 13.95,13.34 						"/>
						<polygon fill="#FFFFFF" points="13.9,13.18 13.98,13.3 13.9,13.34 						"/>
						<polygon fill="#FFFFFF" points="14.06,13.3 13.9,13.3 13.9,13.34 						"/>
						<polygon fill="#FFFFFF" points="14.06,13.3 13.95,13.34 13.9,13.3 						"/>
						<polygon fill="#FFFFFF" points="13.82,13.3 13.9,13.34 13.95,13.3 						"/>
						<polygon fill="#FFFFFF" points="13.82,13.3 13.95,13.3 13.95,13.34 						"/>
						<polygon fill="#FFFFFF" points="13.98,13.42 13.98,13.3 13.9,13.3 						"/>
						<polygon fill="#FFFFFF" points="13.98,13.42 13.9,13.34 13.95,13.3 						"/>
						<polygon fill="#FFFFFF" points="13.86,13.42 13.95,13.34 13.9,13.3 						"/>
						<polygon fill="#FFFFFF" points="13.86,13.42 13.9,13.3 13.95,13.3 						"/>
						<polygon fill="#FFFFFF" points="13.27,13.34 13.27,13.42 13.3,13.46 						"/>
						<polygon fill="#FFFFFF" points="13.27,13.34 13.3,13.42 13.27,13.46 						"/>
						<polygon fill="#FFFFFF" points="13.38,13.38 13.27,13.38 13.27,13.46 						"/>
						<polygon fill="#FFFFFF" points="13.38,13.38 13.27,13.46 13.27,13.42 						"/>
						<polygon fill="#FFFFFF" points="13.18,13.38 13.27,13.46 13.27,13.42 						"/>
						<polygon fill="#FFFFFF" points="13.18,13.38 13.27,13.38 13.27,13.46 						"/>
						<polygon fill="#FFFFFF" points="13.34,13.49 13.3,13.42 13.27,13.42 						"/>
						<polygon fill="#FFFFFF" points="13.34,13.49 13.27,13.46 13.27,13.42 						"/>
						<polygon fill="#FFFFFF" points="13.22,13.49 13.3,13.46 13.27,13.42 						"/>
						<polygon fill="#FFFFFF" points="13.22,13.49 13.27,13.42 13.3,13.42 						"/>
						<polygon fill="#FFFFFF" points="10.14,11.45 10.1,11.62 10.14,11.62 						"/>
						<polygon fill="#FFFFFF" points="10.14,11.45 10.18,11.62 10.14,11.62 						"/>
						<polygon fill="#FFFFFF" points="10.26,11.58 10.14,11.58 10.14,11.62 						"/>
						<polygon fill="#FFFFFF" points="10.26,11.58 10.14,11.66 10.14,11.58 						"/>
						<polygon fill="#FFFFFF" points="10.02,11.58 10.14,11.66 10.14,11.58 						"/>
						<polygon fill="#FFFFFF" points="10.02,11.58 10.14,11.58 10.14,11.62 						"/>
						<polygon fill="#FFFFFF" points="10.22,11.7 10.18,11.58 10.1,11.62 						"/>
						<polygon fill="#FFFFFF" points="10.22,11.7 10.1,11.62 10.14,11.58 						"/>
						<polygon fill="#FFFFFF" points="10.06,11.7 10.18,11.62 10.14,11.58 						"/>
						<polygon fill="#FFFFFF" points="10.06,11.7 10.1,11.58 10.18,11.62 						"/>
						<polygon fill="#FFFFFF" points="12.46,11.18 12.46,11.3 12.5,11.3 						"/>
						<polygon fill="#FFFFFF" points="12.46,11.18 12.5,11.3 12.46,11.3 						"/>
						<polygon fill="#FFFFFF" points="12.59,11.26 12.46,11.26 12.46,11.3 						"/>
						<polygon fill="#FFFFFF" points="12.59,11.26 12.46,11.3 12.46,11.26 						"/>
						<polygon fill="#FFFFFF" points="12.38,11.26 12.46,11.3 12.46,11.26 						"/>
						<polygon fill="#FFFFFF" points="12.38,11.26 12.46,11.26 12.46,11.3 						"/>
						<polygon fill="#FFFFFF" points="12.54,11.38 12.5,11.26 12.46,11.3 						"/>
						<polygon fill="#FFFFFF" points="12.54,11.38 12.46,11.3 12.46,11.26 						"/>
						<polygon fill="#FFFFFF" points="12.42,11.38 12.5,11.3 12.46,11.26 						"/>
						<polygon fill="#FFFFFF" points="12.42,11.38 12.46,11.26 12.5,11.3 						"/>
						<polygon fill="#FFFFFF" points="11.5,12.9 11.46,13.06 11.5,13.06 						"/>
						<polygon fill="#FFFFFF" points="11.5,12.9 11.54,13.06 11.46,13.06 						"/>
						<polygon fill="#FFFFFF" points="11.66,13.02 11.5,13.02 11.5,13.1 						"/>
						<polygon fill="#FFFFFF" points="11.66,13.02 11.5,13.1 11.5,13.06 						"/>
						<polygon fill="#FFFFFF" points="11.34,13.02 11.5,13.1 11.5,13.06 						"/>
						<polygon fill="#FFFFFF" points="11.34,13.02 11.5,13.02 11.5,13.1 						"/>
						<polygon fill="#FFFFFF" points="11.59,13.18 11.54,13.06 11.46,13.06 						"/>
						<polygon fill="#FFFFFF" points="11.59,13.18 11.46,13.1 11.5,13.06 						"/>
						<polygon fill="#FFFFFF" points="11.42,13.18 11.54,13.1 11.5,13.06 						"/>
						<polygon fill="#FFFFFF" points="11.42,13.18 11.46,13.06 11.54,13.06 						"/>
						<polygon fill="#FFFFFF" points="11.9,12.22 11.86,12.34 11.94,12.38 						"/>
						<polygon fill="#FFFFFF" points="11.9,12.22 11.94,12.34 11.9,12.38 						"/>
						<polygon fill="#FFFFFF" points="12.02,12.34 11.9,12.34 11.9,12.38 						"/>
						<polygon fill="#FFFFFF" points="12.02,12.34 11.94,12.38 11.9,12.34 						"/>
						<polygon fill="#FFFFFF" points="11.78,12.34 11.9,12.38 11.94,12.34 						"/>
						<polygon fill="#FFFFFF" points="11.78,12.34 11.9,12.34 11.9,12.38 						"/>
						<polygon fill="#FFFFFF" points="11.98,12.45 11.94,12.34 11.9,12.34 						"/>
						<polygon fill="#FFFFFF" points="11.98,12.45 11.9,12.38 11.9,12.34 						"/>
						<polygon fill="#FFFFFF" points="11.82,12.45 11.94,12.38 11.9,12.34 						"/>
						<polygon fill="#FFFFFF" points="11.82,12.45 11.86,12.34 11.94,12.34 						"/>
						<polygon fill="#FFFFFF" points="11.5,11.9 11.46,12.02 11.5,12.06 						"/>
						<polygon fill="#FFFFFF" points="11.5,11.9 11.54,12.02 11.5,12.06 						"/>
						<polygon fill="#FFFFFF" points="11.62,12.02 11.5,12.02 11.5,12.06 						"/>
						<polygon fill="#FFFFFF" points="11.62,12.02 11.5,12.06 11.5,12.02 						"/>
						<polygon fill="#FFFFFF" points="11.38,12.02 11.5,12.06 11.5,12.02 						"/>
						<polygon fill="#FFFFFF" points="11.38,12.02 11.5,12.02 11.5,12.06 						"/>
						<polygon fill="#FFFFFF" points="11.59,12.13 11.54,12.02 11.46,12.02 						"/>
						<polygon fill="#FFFFFF" points="11.59,12.13 11.46,12.06 11.5,12.02 						"/>
						<polygon fill="#FFFFFF" points="11.42,12.13 11.54,12.06 11.5,12.02 						"/>
						<polygon fill="#FFFFFF" points="11.42,12.13 11.46,12.02 11.5,12.02 						"/>
						<polygon fill="#FFFFFF" points="11.14,12.26 11.1,12.34 11.18,12.38 						"/>
						<polygon fill="#FFFFFF" points="11.14,12.26 11.18,12.34 11.1,12.38 						"/>
						<polygon fill="#FFFFFF" points="11.22,12.34 11.14,12.34 11.14,12.38 						"/>
						<polygon fill="#FFFFFF" points="11.22,12.34 11.14,12.38 11.14,12.34 						"/>
						<polygon fill="#FFFFFF" points="11.02,12.34 11.14,12.38 11.14,12.34 						"/>
						<polygon fill="#FFFFFF" points="11.02,12.34 11.14,12.34 11.14,12.38 						"/>
						<polygon fill="#FFFFFF" points="11.18,12.42 11.18,12.34 11.1,12.34 						"/>
						<polygon fill="#FFFFFF" points="11.18,12.42 11.1,12.38 11.14,12.34 						"/>
						<polygon fill="#FFFFFF" points="11.1,12.42 11.18,12.38 11.14,12.34 						"/>
						<polygon fill="#FFFFFF" points="11.1,12.42 11.1,12.34 11.18,12.34 						"/>
						<polygon fill="#FFFFFF" points="11.34,12.54 11.3,12.58 11.34,12.62 						"/>
						<polygon fill="#FFFFFF" points="11.34,12.54 11.34,12.58 11.3,12.62 						"/>
						<polygon fill="#FFFFFF" points="11.38,12.58 11.34,12.58 11.34,12.62 						"/>
						<polygon fill="#FFFFFF" points="11.38,12.58 11.34,12.62 11.3,12.58 						"/>
						<polygon fill="#FFFFFF" points="11.26,12.58 11.3,12.62 11.34,12.58 						"/>
						<polygon fill="#FFFFFF" points="11.26,12.58 11.34,12.58 11.34,12.62 						"/>
						<polygon fill="#FFFFFF" points="11.34,12.66 11.34,12.58 11.3,12.62 						"/>
						<polygon fill="#FFFFFF" points="11.34,12.66 11.3,12.62 11.34,12.58 						"/>
						<polygon fill="#FFFFFF" points="11.26,12.66 11.34,12.62 11.3,12.58 						"/>
						<polygon fill="#FFFFFF" points="11.26,12.66 11.3,12.58 11.34,12.62 						"/>
						<polygon fill="#FFFFFF" points="12.59,13.74 12.54,13.86 12.59,13.86 						"/>
						<polygon fill="#FFFFFF" points="12.59,13.74 12.62,13.86 12.54,13.86 						"/>
						<polygon fill="#FFFFFF" points="12.7,13.81 12.54,13.81 12.54,13.9 						"/>
						<polygon fill="#FFFFFF" points="12.7,13.81 12.59,13.9 12.54,13.86 						"/>
						<polygon fill="#FFFFFF" points="12.46,13.81 12.54,13.9 12.59,13.86 						"/>
						<polygon fill="#FFFFFF" points="12.46,13.81 12.59,13.81 12.59,13.9 						"/>
						<polygon fill="#FFFFFF" points="12.62,13.98 12.62,13.86 12.54,13.86 						"/>
						<polygon fill="#FFFFFF" points="12.62,13.98 12.54,13.9 12.59,13.86 						"/>
						<polygon fill="#FFFFFF" points="12.5,13.98 12.59,13.9 12.54,13.86 						"/>
						<polygon fill="#FFFFFF" points="12.5,13.98 12.54,13.86 12.59,13.86 						"/>
						<polygon fill="#FFFFFF" points="12.86,13.46 12.86,13.54 12.9,13.54 						"/>
						<polygon fill="#FFFFFF" points="12.86,13.46 12.9,13.54 12.86,13.54 						"/>
						<polygon fill="#FFFFFF" points="12.98,13.54 12.86,13.54 12.86,13.58 						"/>
						<polygon fill="#FFFFFF" points="12.98,13.54 12.9,13.58 12.86,13.54 						"/>
						<polygon fill="#FFFFFF" points="12.78,13.54 12.86,13.58 12.9,13.54 						"/>
						<polygon fill="#FFFFFF" points="12.78,13.54 12.86,13.54 12.86,13.58 						"/>
						<polygon fill="#FFFFFF" points="12.95,13.62 12.9,13.54 12.86,13.54 						"/>
						<polygon fill="#FFFFFF" points="12.95,13.62 12.86,13.58 12.86,13.54 						"/>
						<polygon fill="#FFFFFF" points="12.82,13.62 12.9,13.58 12.86,13.54 						"/>
						<polygon fill="#FFFFFF" points="12.82,13.62 12.86,13.54 12.9,13.54 						"/>
						<polygon fill="#FFFFFF" points="12.3,13.38 12.27,13.46 12.3,13.46 						"/>
						<polygon fill="#FFFFFF" points="12.3,13.38 12.3,13.46 12.27,13.46 						"/>
						<polygon fill="#FFFFFF" points="12.38,13.42 12.3,13.42 12.3,13.49 						"/>
						<polygon fill="#FFFFFF" points="12.38,13.42 12.3,13.49 12.27,13.46 						"/>
						<polygon fill="#FFFFFF" points="12.18,13.42 12.27,13.49 12.3,13.46 						"/>
						<polygon fill="#FFFFFF" points="12.18,13.42 12.3,13.42 12.3,13.49 						"/>
						<polygon fill="#FFFFFF" points="12.34,13.54 12.3,13.46 12.27,13.46 						"/>
						<polygon fill="#FFFFFF" points="12.34,13.54 12.27,13.49 12.3,13.46 						"/>
						<polygon fill="#FFFFFF" points="12.22,13.54 12.3,13.49 12.3,13.46 						"/>
						<polygon fill="#FFFFFF" points="12.22,13.54 12.27,13.46 12.3,13.46 						"/>
						<polygon fill="#FFFFFF" points="10.06,13.22 10.02,13.34 10.1,13.38 						"/>
						<polygon fill="#FFFFFF" points="10.06,13.22 10.1,13.34 10.06,13.38 						"/>
						<polygon fill="#FFFFFF" points="10.22,13.3 10.06,13.3 10.06,13.38 						"/>
						<polygon fill="#FFFFFF" points="10.22,13.3 10.1,13.38 10.06,13.34 						"/>
						<polygon fill="#FFFFFF" points="9.9,13.3 10.06,13.38 10.1,13.34 						"/>
						<polygon fill="#FFFFFF" points="9.9,13.3 10.06,13.3 10.06,13.38 						"/>
						<polygon fill="#FFFFFF" points="10.14,13.46 10.1,13.34 10.06,13.38 						"/>
						<polygon fill="#FFFFFF" points="10.14,13.46 10.02,13.38 10.06,13.34 						"/>
						<polygon fill="#FFFFFF" points="9.98,13.46 10.1,13.38 10.06,13.34 						"/>
						<polygon fill="#FFFFFF" points="9.98,13.46 10.02,13.34 10.1,13.38 						"/>
						<polygon fill="#FFFFFF" points="11.54,14.3 11.5,14.26 11.5,14.26 						"/>
						<polygon fill="#FFFFFF" points="11.54,14.3 11.5,14.26 11.5,14.26 						"/>
						<polygon fill="#FFFFFF" points="11.46,14.3 11.5,14.26 11.5,14.26 						"/>
						<polygon fill="#FFFFFF" points="11.46,14.3 11.5,14.26 11.5,14.26 						"/>
					</g>
				</g>
			</g>
		</g>
		<circle id="_Ellipse_2" fill="none" stroke="#E8E8E8" stroke-miterlimit="10" cx="11.5" cy="11.48" r="11.01"/>
	</g>
</g>
<circle id="_Ellipse_2_1_" fill="none" stroke="#E8E8E8" stroke-miterlimit="10" cx="11.5" cy="11.48" r="11.01"/>
</svg>
