<?xml version="1.0" encoding="utf-8"?>
<!-- Generator: Adobe Illustrator 22.0.1, SVG Export Plug-In . SVG Version: 6.00 Build 0)  -->
<svg version="1.1" id="Camada_1" xmlns="http://www.w3.org/2000/svg" xmlns:xlink="http://www.w3.org/1999/xlink" x="0px" y="0px"
	 viewBox="0 0 374.5 259.8" style="enable-background:new 0 0 374.5 259.8;" xml:space="preserve">
<style type="text/css">
	.st0{fill:#333333;}
</style>
<g>
	<g>
		<path class="st0" d="M213.8,79.2l-0.4-44c0-17-9.2-20.6-16.8-20.6H169v113h16.6v-27h5l9,27h16l-9.4-29.3
			C211.3,95.2,213.8,88.8,213.8,79.2z M193,84.4h-7.4V31.6h7c2.1,0,4.2,0.7,4.2,6.1l0.4,40.7C197.2,83.6,195.1,84.4,193,84.4z"/>
		<path class="st0" d="M250.6,14.6H238c-11.5,0-17.5,7.1-17.5,20.6l0.4,72c0,13.4,6.1,20.4,17.7,20.4h12.4
			c11.6,0,17.7-7.1,17.7-20.4l-0.4-72C268.2,21.7,262.1,14.6,250.6,14.6z M248.4,110.7h-6.8c-3,0-4.2-1.3-4.2-4.5l-0.4-70
			c0-3.2,1.2-4.5,4.1-4.5h6.2c3,0,4.2,1.3,4.2,4.5l0.4,70C251.9,109.9,250.5,110.7,248.4,110.7z"/>
		<path class="st0" d="M303.2,106.1c0,3.8-1.4,4.5-3.6,4.5h-3.3c-2.1,0-3.6-0.8-3.6-4.5l-0.4-70c0-3.8,1.4-4.5,3.6-4.5h2.6
			c3,0,4.2,1.3,4.2,4.5v23.3l16.6-10.2V35.1c0-13.4-6.1-20.4-17.5-20.4h-8.5c-11.5,0-17.5,7.1-17.5,20.4l0.4,72.1
			c0,13.4,6.1,20.4,17.5,20.4h8.5c11.5,0,17.5-7.1,17.5-20.4v-8.9l-16.6-12V106.1z"/>
		<polygon class="st0" points="343.3,81.3 357.7,127.6 374.5,127.6 356.1,70.7 370.1,14.6 354.5,14.6 343.3,60.5 343,14.6 
			326.4,14.6 326.7,127.6 343.3,127.6 		"/>
		<path class="st0" d="M189.1,143.2h-8c-4.6,0-8.1,1.3-10.3,4c-2.2,2.7-3.4,6.8-3.4,12.3v21.6c0,2.5,0.2,4.6,0.7,6.1
			c0.4,1.4,1.1,2.5,2.1,3.4c1.1,1,3,2.3,5.5,3.8l0,0l0,0l12.1,7.5l0,0l0,0c1.7,1.1,2.9,2.1,3.7,2.8c1.3,1.2,2,3.2,2,5.3V228
			c0,5-2.6,7.9-7,7.9h-2.3c-4.7,0-7.3-2.8-7.3-7.9V216l-9.6,7.3v4.3c0,6,1.2,10.5,3.4,13.4c2.3,2.9,5.6,4.3,10.3,4.3h7.8
			c4.7,0,8.3-1.3,10.7-3.9c2.4-2.6,3.6-6.7,3.6-12.1v-22.5c0-4.5-0.5-6.1-0.7-6.7c-0.5-1.1-1.2-2-2.1-2.8c-1-0.9-2.9-2.1-5.5-3.7
			l-12.5-7.2l0,0l0,0c-1.7-1.1-2.9-2.1-3.7-2.8c-1.1-1-1.6-2.8-1.6-5.3v-17.5c0-5.2,2.5-8.1,7-8.1h2c4.7,0,7.5,3,7.5,8.1v15.1
			l9.6-6.8v-9.3c0-5.5-1.2-9.6-3.6-12.3C197.4,144.6,193.8,143.2,189.1,143.2z"/>
		<path class="st0" d="M242.3,143.2h-12.2c-4.6,0-8.1,1.3-10.3,4c-2.2,2.7-3.4,6.8-3.4,12.3V229c0,5.5,1.1,9.6,3.4,12.2
			c2.3,2.6,5.8,3.9,10.4,3.9h12c4.7,0,8.2-1.3,10.4-3.9c2.3-2.6,3.4-6.7,3.4-12.2v-69.5c0-5.5-1.1-9.7-3.4-12.3
			C250.4,144.6,246.9,143.2,242.3,143.2z M246.4,228c0,5.1-2.4,7.9-6.6,7.9h-6.5c-4.7,0-7.3-2.8-7.3-7.9v-67.6
			c0-5.1,2.5-7.9,7.2-7.9h6c4.7,0,7.3,2.8,7.3,7.9V228z"/>
		<polygon class="st0" points="281,236 279.4,236 279.4,234.2 279.4,143.2 269.8,143.2 269.8,245.2 295.4,245.2 289.2,236 		"/>
		<polygon class="st0" points="308.1,245.2 317.8,245.2 317.8,144.7 308.1,144.9 		"/>
		<path class="st0" d="M353.5,143.2h-20.6v102h23.3c4.7,0,8.2-1.1,10.4-3.4c2.2-2.2,3.3-5.5,3.3-10.1v-69.9c0-6.2-1.4-10.9-4-14
			C363.2,144.8,359,143.2,353.5,143.2z M360.3,229.5c0,1.9-0.6,6.5-6.6,6.5h-9.6h-1.6v-1.8v-79.9v-1.8h1.6h8.9
			c2.7,0,7.3,1.2,7.3,9.4V229.5z"/>
	</g>
	<g>
		<path class="st0" d="M147.1,132.4l-20.6-82.7l-2-8L76.6,3.4L67.7,0L16.2,45.9l-0.4,0.9l2.6,1.8l21.8,3.9L14.9,57l8.3,5.3L9.1,62.5
			l-5,69.9L0,139.9l25.4,83.7l11.6-4l-3.9,9.7l12.6-0.1l-5.8,5l35.4,25.6l6.3-9.4l42.6-26.7l2.1-8l-10.9-1.3l12.3-5l2.9-11.7
			l-24,7.8l25.7-14.6L147.1,132.4z M59.6,64.8L86.8,59L98,73.9l-16.6-7.6l-25.3,4.8l-10.6,4.2L59.6,64.8z M14.8,124.8L11,111.5
			l12.2-11.6l-8.1,13.5L14.8,124.8z M67.7,198l-20.2-6.5l-4.6-9.6l11.5,8.2l16.6,3l24.2-5.7L67.7,198z M111.2,166.1
			c1.8,1.4,2.9,3.5,2.9,5.9c0,4.1-3.4,7.5-7.5,7.5c-3,0-5.5-1.7-6.7-4.2c-8,4.9-17.4,7.7-27.5,7.7c-10.5,0-20.4-3.1-28.6-8.4
			c-1.1,2.7-3.8,4.7-6.9,4.7c-4.1,0-7.5-3.4-7.5-7.5c0-2.7,1.4-5.1,3.6-6.4c-8.5-9.4-13.6-21.8-13.6-35.5c0-13.2,4.8-25.2,12.7-34.5
			c-1.6-1.4-2.7-3.4-2.7-5.8c0-4.1,3.4-7.5,7.5-7.5c2.6,0,5,1.4,6.3,3.4c8.4-5.6,18.4-8.8,29.3-8.8c10.4,0,20,3,28.2,8.1
			c1.4-1.7,3.5-2.8,5.8-2.8c4.1,0,7.5,3.4,7.5,7.5c0,1.9-0.7,3.6-1.9,4.9c8.4,9.4,13.5,21.8,13.5,35.3
			C125.4,143.9,120,156.6,111.2,166.1z M132,121.5l-10.5-22.3l13.7,20.4l3.1,12.3l-9.4,15.3l3.8-13.5L132,121.5z"/>
		<circle class="st0" cx="37.1" cy="89.6" r="3.1"/>
		<circle class="st0" cx="37.1" cy="171.7" r="3.1"/>
		<circle class="st0" cx="106.8" cy="172.1" r="3.1"/>
		<circle class="st0" cx="106.4" cy="89.6" r="3.1"/>
		<path class="st0" d="M72.4,116.6c-7.3,0-13.3,5.9-13.3,13.3c0,7.3,5.9,13.3,13.3,13.3s13.3-5.9,13.3-13.3
			C85.6,122.6,79.7,116.6,72.4,116.6z M83.4,133.2c-0.3,1-1,3-2,3.3c0.1-0.1,0-2-0.1-2.3c0-0.5-0.1-1-0.2-1.5
			c-0.3-1.2-0.9-2.6-1.8-3.5c-0.7-0.7-1.6-1.2-2.5-1.5c-1.1-0.3-2-0.2-3.1-0.2c-1.3,0-3-0.3-4-1.2c-0.9-0.8-1.5-2.1-1.4-3.3
			c0.1-2.7,2.4-4.6,5-4.7c2.5-0.1,5.3,1.1,7.2,2.8c2.2,2.1,3.4,5.1,3.5,8.1C84,130.5,83.8,131.9,83.4,133.2z"/>
		<path class="st0" d="M72.4,86.8c-23.8,0-43.1,19.3-43.1,43.1c0,23.8,19.3,43.1,43.1,43.1c23.8,0,43.1-19.3,43.1-43.1
			C115.5,106.1,96.2,86.8,72.4,86.8z M72.4,167.4c-20.7,0-37.5-16.8-37.5-37.5c0-20.7,16.8-37.5,37.5-37.5
			c20.7,0,37.5,16.8,37.5,37.5C109.8,150.6,93.1,167.4,72.4,167.4z"/>
	</g>
</g>
</svg>
