<?xml version="1.0" encoding="utf-8"?>
<!-- Generator: Adobe Illustrator 22.0.1, SVG Export Plug-In . SVG Version: 6.00 Build 0)  -->
<svg version="1.1" id="Camada_1" xmlns="http://www.w3.org/2000/svg" xmlns:xlink="http://www.w3.org/1999/xlink" x="0px" y="0px"
	 viewBox="0 0 190.4 470.2" style="enable-background:new 0 0 190.4 470.2;" xml:space="preserve">
<style type="text/css">
	.st0{fill:#333333;}
</style>
<g>
	<g>
		<path class="st0" d="M162.8,121.8l-19-76.1l-1.8-7.4L98,3.2L89.8,0L42.5,42.2L42.1,43l2.4,1.6l20,3.6l-23.2,4.1l7.6,4.9L36,57.4
			l-4.6,64.3l-3.8,6.9l23.4,77l10.7-3.7l-3.6,8.9l11.6-0.1l-5.3,4.6l32.5,23.5l5.8-8.6l39.2-24.5l2-7.4l-10-1.2l11.4-4.6l2.7-10.7
			l-22,7.2l23.6-13.5L162.8,121.8z M82.4,59.6l25.1-5.3l10.3,13.7l-15.2-7l-23.3,4.4l-9.7,3.8L82.4,59.6z M41.2,114.7l-3.5-12.2
			l11.2-10.7l-7.5,12.4L41.2,114.7z M89.8,182.1l-18.6-5.9l-4.2-8.8l10.6,7.5l15.3,2.8l22.2-5.2L89.8,182.1z M129.8,152.7
			c1.6,1.3,2.7,3.2,2.7,5.4c0,3.8-3.1,6.9-6.9,6.9c-2.7,0-5.1-1.6-6.2-3.9c-7.4,4.5-16,7.1-25.3,7.1c-9.7,0-18.7-2.8-26.3-7.7
			c-1,2.5-3.5,4.3-6.4,4.3c-3.8,0-6.9-3.1-6.9-6.9c0-2.5,1.3-4.7,3.3-5.9c-7.8-8.6-12.5-20.1-12.5-32.6c0-12.1,4.4-23.2,11.7-31.7
			c-1.5-1.3-2.5-3.2-2.5-5.3c0-3.8,3.1-6.9,6.9-6.9c2.4,0,4.6,1.3,5.8,3.2c7.7-5.1,17-8.1,26.9-8.1c9.5,0,18.4,2.7,25.9,7.4
			c1.3-1.5,3.2-2.5,5.3-2.5c3.8,0,6.9,3.1,6.9,6.9c0,1.7-0.6,3.3-1.7,4.5c7.7,8.6,12.4,20,12.4,32.5
			C142.9,132.3,137.9,144,129.8,152.7z M148.9,111.7l-9.7-20.5l12.6,18.8l2.9,11.3l-8.7,14l3.5-12.4L148.9,111.7z"/>
		<circle class="st0" cx="61.6" cy="82.4" r="2.9"/>
		<circle class="st0" cx="61.6" cy="157.9" r="2.9"/>
		<circle class="st0" cx="125.7" cy="158.2" r="2.9"/>
		<circle class="st0" cx="125.4" cy="82.4" r="2.9"/>
		<path class="st0" d="M94.1,107.2c-6.7,0-12.2,5.5-12.2,12.2s5.5,12.2,12.2,12.2s12.2-5.5,12.2-12.2S100.9,107.2,94.1,107.2z
			 M104.3,122.4c-0.3,0.9-0.9,2.7-1.8,3.1c0.1-0.1,0-1.9-0.1-2.1c0-0.5-0.1-1-0.2-1.4c-0.3-1.1-0.9-2.4-1.7-3.3
			c-0.6-0.7-1.4-1.1-2.3-1.4c-1-0.3-1.8-0.2-2.8-0.2c-1.2,0-2.7-0.3-3.7-1.1c-0.9-0.7-1.4-1.9-1.3-3.1c0.1-2.5,2.2-4.2,4.6-4.3
			c2.3-0.1,4.9,1,6.6,2.6c2,1.9,3.2,4.7,3.2,7.5C104.9,120,104.7,121.3,104.3,122.4z"/>
		<path class="st0" d="M94.1,79.8c-21.9,0-39.6,17.7-39.6,39.6c0,21.9,17.7,39.6,39.6,39.6c21.9,0,39.6-17.7,39.6-39.6
			C133.8,97.5,116,79.8,94.1,79.8z M94.1,153.9c-19,0-34.4-15.4-34.4-34.4c0-19,15.4-34.4,34.4-34.4c19,0,34.4,15.4,34.4,34.4
			C128.6,138.5,113.1,153.9,94.1,153.9z"/>
	</g>
	<g>
		<path class="st0" d="M42.7,317.6l-0.3-40.5c0-15.6-8.4-18.9-15.5-18.9H1.5v103.9h15.3v-24.9h4.6l8.3,24.9h14.7l-8.6-26.9
			C40.3,332.3,42.7,326.4,42.7,317.6z M23.5,322.3h-6.8v-48.5h6.4c1.9,0,3.9,0.7,3.9,5.6l0.3,37.4C27.4,321.7,25.4,322.3,23.5,322.3
			z"/>
		<path class="st0" d="M76.5,258.2H64.8c-10.5,0-16.1,6.5-16.1,18.9l0.3,66.2c0,12.3,5.6,18.8,16.2,18.8h11.4
			c10.6,0,16.2-6.5,16.2-18.8l-0.3-66.2C92.6,264.7,87,258.2,76.5,258.2z M74.4,346.5h-6.2c-2.8,0-3.9-1.2-3.9-4.2L64,278
			c0-3,1.1-4.2,3.8-4.2h5.7c2.8,0,3.9,1.2,3.9,4.2l0.3,64.4C77.7,345.8,76.4,346.5,74.4,346.5z"/>
		<path class="st0" d="M124.8,342.3c0,3.5-1.3,4.2-3.3,4.2h-3c-2,0-3.3-0.7-3.3-4.2l-0.3-64.4c0-3.5,1.3-4.2,3.3-4.2h2.4
			c2.8,0,3.9,1.2,3.9,4.2v21.4l15.3-9.4v-13c0-12.3-5.6-18.8-16.1-18.8h-7.9c-10.5,0-16.1,6.5-16.1,18.8l0.3,66.3
			c0,12.3,5.6,18.8,16.1,18.8h7.9c10.5,0,16.1-6.5,16.1-18.8v-8.1l-15.3-11V342.3z"/>
		<polygon class="st0" points="161.7,319.5 174.9,362.1 190.4,362.1 173.5,309.8 186.3,258.2 172,258.2 161.7,300.4 161.4,258.2 
			146.1,258.2 146.5,362.1 161.7,362.1 		"/>
		<path class="st0" d="M20,376.4h-7.3c-4.3,0-7.5,1.2-9.5,3.6C1,382.5,0,386.4,0,391.4v19.9c0,2.3,0.2,4.2,0.7,5.6
			c0.4,1.3,1,2.3,1.9,3.1c1,0.9,2.7,2.1,5.1,3.5l0,0l0,0l11.1,6.9l0,0l0,0c1.5,1,2.7,1.9,3.4,2.6c1.2,1.1,1.8,2.9,1.8,4.9v16.5
			c0,4.6-2.4,7.3-6.4,7.3h-2.1c-4.3,0-6.7-2.6-6.7-7.3v-11.1L0,450v4c0,5.5,1.1,9.6,3.2,12.3c2.1,2.6,5.2,3.9,9.5,3.9h7.2
			c4.3,0,7.6-1.2,9.8-3.6c2.2-2.4,3.3-6.2,3.3-11.1v-20.7c0-4.1-0.4-5.6-0.7-6.2c-0.5-1-1.1-1.8-2-2.6c-1-0.8-2.6-2-5-3.4L13.8,416
			l0,0l0,0c-1.6-1-2.7-1.9-3.4-2.6c-1-1-1.5-2.6-1.5-4.9v-16.1c0-4.8,2.3-7.4,6.5-7.4h1.8c4.3,0,6.9,2.8,6.9,7.4v13.9l8.9-6.3v-8.6
			c0-5-1.1-8.8-3.3-11.3C27.5,377.7,24.3,376.4,20,376.4z"/>
		<path class="st0" d="M68.9,376.4H57.6c-4.3,0-7.5,1.2-9.5,3.6c-2.1,2.4-3.1,6.3-3.1,11.3v63.9c0,5,1.1,8.8,3.1,11.2
			c2.1,2.4,5.3,3.6,9.6,3.6h11c4.3,0,7.5-1.2,9.6-3.6c2.1-2.4,3.1-6.2,3.1-11.2v-63.9c0-5.1-1-8.9-3.1-11.3
			C76.3,377.7,73.1,376.4,68.9,376.4z M72.6,454.4c0,4.7-2.2,7.3-6.1,7.3h-6c-4.3,0-6.7-2.6-6.7-7.3v-62.1c0-4.7,2.3-7.3,6.6-7.3
			h5.5c4.3,0,6.7,2.6,6.7,7.3V454.4z"/>
		<polygon class="st0" points="104.4,461.7 102.9,461.7 102.9,460.1 102.9,376.4 94.1,376.4 94.1,470.2 117.6,470.2 112,461.7 		"/>
		<polygon class="st0" points="129.4,470.2 138.2,470.2 138.2,377.8 129.4,378 		"/>
		<path class="st0" d="M171.1,376.4h-19v93.7h21.4c4.3,0,7.5-1,9.6-3.1c2-2,3-5.1,3-9.3v-64.3c0-5.7-1.2-10.1-3.7-12.8
			C180,377.9,176.2,376.4,171.1,376.4z M177.3,455.7c0,1.8-0.6,6-6.1,6h-8.8H161v-1.6v-73.5v-1.6h1.4h8.2c2.5,0,6.7,1.1,6.7,8.7
			V455.7z"/>
	</g>
</g>
</svg>
