<?xml version="1.0" encoding="utf-8"?>
<!-- Generator: Adobe Illustrator 22.0.1, SVG Export Plug-In . SVG Version: 6.00 Build 0)  -->
<svg version="1.1" id="Camada_1" xmlns="http://www.w3.org/2000/svg" xmlns:xlink="http://www.w3.org/1999/xlink" x="0px" y="0px"
	 viewBox="0 0 410.1 311.5" style="enable-background:new 0 0 410.1 311.5;" xml:space="preserve">
<style type="text/css">
	.st0{fill:#333333;}
</style>
<g>
	<g>
		<path class="st0" d="M229.6,72.6l-0.4-49.5C229.2,4,218.9,0,210.3,0h-31v126.9h18.6V96.6h5.6l10.2,30.4h18L221,94.1
			C226.7,90.5,229.6,83.3,229.6,72.6z M206.2,78.4h-8.3V19.1h7.9c2.4,0,4.8,0.8,4.8,6.8l0.4,45.7C210.9,77.6,208.5,78.4,206.2,78.4z
			"/>
		<path class="st0" d="M270.9,0h-14.2C243.8,0,237,8,237,23.1l0.4,80.9c0,15,6.9,22.9,19.8,22.9h13.9c13,0,19.8-7.9,19.8-22.9
			l-0.4-80.9C290.6,8,283.8,0,270.9,0z M268.4,107.9h-7.6c-3.4,0-4.8-1.5-4.8-5.1l-0.4-78.7c0-3.6,1.3-5.1,4.6-5.1h7
			c3.4,0,4.8,1.5,4.8,5.1l0.4,78.7C272.4,107,270.8,107.9,268.4,107.9z"/>
		<path class="st0" d="M330,102.8c0,4.2-1.6,5.1-4,5.1h-3.7c-2.4,0-4-0.9-4-5.1l-0.4-78.7c0-4.2,1.6-5.1,4-5.1h2.9
			c3.4,0,4.8,1.5,4.8,5.1v26.2l18.6-11.5V22.9c0-15-6.8-22.9-19.7-22.9h-9.6c-12.9,0-19.7,7.9-19.7,22.9l0.4,81
			c0,15,6.8,22.9,19.7,22.9h9.6c12.9,0,19.7-7.9,19.7-22.9V94L330,80.6V102.8z"/>
		<polygon class="st0" points="375.1,74.9 391.2,126.9 410.1,126.9 389.4,63.1 405.2,0 387.6,0 375.1,51.5 374.7,0 356.1,0 
			356.5,126.9 375.1,126.9 		"/>
		<path class="st0" d="M201.8,144.5h-9c-5.2,0-9.1,1.5-11.6,4.5c-2.5,3-3.8,7.6-3.8,13.9v24.3c0,2.8,0.3,5.1,0.8,6.9
			c0.5,1.6,1.3,2.8,2.3,3.8c1.3,1.1,3.3,2.6,6.2,4.2l0,0l0,0l13.6,8.4l0,0l0,0c1.9,1.3,3.2,2.3,4.1,3.2c1.4,1.4,2.2,3.6,2.2,6v20.1
			c0,5.6-2.9,8.9-7.9,8.9h-2.5c-5.3,0-8.2-3.2-8.2-8.9v-13.6l-10.8,8.2v4.9c0,6.7,1.3,11.8,3.9,15c2.5,3.2,6.3,4.8,11.6,4.8h8.8
			c5.3,0,9.3-1.5,12-4.4c2.7-3,4-7.5,4-13.6v-25.3c0-5-0.5-6.9-0.8-7.6c-0.6-1.2-1.4-2.3-2.4-3.1c-1.2-1-3.2-2.4-6.1-4.2l-14-8.1
			l-0.1,0l0,0c-1.9-1.3-3.3-2.3-4.1-3.2c-1.2-1.2-1.8-3.1-1.8-6V164c0-5.9,2.8-9.1,7.9-9.1h2.2c5.3,0,8.5,3.4,8.5,9.1v17l10.8-7.7
			v-10.5c0-6.2-1.3-10.8-4-13.8C211.1,146,207.1,144.5,201.8,144.5z"/>
		<path class="st0" d="M261.6,144.5h-13.8c-5.2,0-9.1,1.5-11.6,4.5c-2.5,3-3.8,7.6-3.8,13.9v78.1c0,6.1,1.3,10.8,3.8,13.7
			c2.5,2.9,6.5,4.4,11.7,4.4h13.5c5.3,0,9.2-1.5,11.7-4.4c2.5-3,3.8-7.6,3.8-13.7v-78.1c0-6.2-1.3-10.9-3.8-13.9
			C270.7,146,266.8,144.5,261.6,144.5z M266.2,239.8c0,5.8-2.6,8.9-7.4,8.9h-7.3c-5.3,0-8.2-3.2-8.2-8.9v-75.9c0-5.8,2.9-8.9,8-8.9
			h6.7c5.3,0,8.2,3.2,8.2,8.9V239.8z"/>
		<polygon class="st0" points="305,248.7 303.2,248.7 303.2,246.7 303.2,144.5 292.4,144.5 292.4,259.1 321.2,259.1 314.3,248.7 		
			"/>
		<polygon class="st0" points="335.6,259.1 346.4,259.1 346.4,146.2 335.6,146.4 		"/>
		<path class="st0" d="M386.6,144.5h-23.2v114.6h26.2c5.3,0,9.2-1.3,11.7-3.8c2.5-2.5,3.7-6.2,3.7-11.4v-78.6c0-7-1.5-12.3-4.5-15.7
			C397.4,146.2,392.8,144.5,386.6,144.5z M394.1,241.4c0,2.2-0.7,7.3-7.4,7.3h-10.8h-1.8v-2v-89.8v-2h1.8h10c3.1,0,8.2,1.4,8.2,10.6
			V241.4z"/>
	</g>
	<g>
		<path class="st0" d="M143.9,132l-20.2-81l-2-7.9L74.9,5.8l-8.7-3.4L15.9,47.3l-0.4,0.9l2.6,1.7l21.3,3.8l-24.7,4.4l8.1,5.2
			L8.9,63.5L4.1,132L0,139.3l24.9,81.9l11.4-3.9l-3.8,9.5l12.3-0.1l-5.6,4.9l34.6,25l6.1-9.2l41.7-26.1l2.1-7.9l-10.7-1.3l12.1-4.9
			l2.9-11.4l-23.4,7.6l25.1-14.3L143.9,132z M58.3,65.8L85,60.2l11,14.5l-16.2-7.5L55,72L44.6,76L58.3,65.8z M14.5,124.5l-3.7-13
			l11.9-11.4l-7.9,13.2L14.5,124.5z M66.3,196.2l-19.8-6.3l-4.5-9.4l11.3,8l16.3,2.9l23.6-5.5L66.3,196.2z M108.8,165
			c1.7,1.3,2.8,3.4,2.8,5.8c0,4-3.3,7.3-7.3,7.3c-2.9,0-5.4-1.7-6.6-4.1c-7.8,4.8-17.1,7.5-26.9,7.5c-10.3,0-19.9-3-28-8.2
			c-1.1,2.7-3.7,4.6-6.8,4.6c-4,0-7.3-3.3-7.3-7.3c0-2.6,1.4-5,3.5-6.2c-8.3-9.2-13.3-21.4-13.3-34.7c0-12.9,4.7-24.7,12.5-33.7
			c-1.6-1.3-2.6-3.4-2.6-5.6c0-4,3.3-7.3,7.3-7.3c2.6,0,4.9,1.3,6.2,3.4c8.2-5.4,18.1-8.6,28.6-8.6c10.1,0,19.6,2.9,27.6,7.9
			c1.3-1.6,3.4-2.7,5.7-2.7c4,0,7.3,3.3,7.3,7.3c0,1.8-0.7,3.5-1.8,4.8c8.2,9.2,13.2,21.3,13.2,34.6
			C122.7,143.2,117.4,155.7,108.8,165z M129.1,121.3l-10.3-21.8l13.4,20l3,12l-9.2,15l3.7-13.2L129.1,121.3z"/>
		<circle class="st0" cx="36.3" cy="90.1" r="3.1"/>
		<circle class="st0" cx="36.3" cy="170.5" r="3.1"/>
		<circle class="st0" cx="104.5" cy="170.8" r="3.1"/>
		<circle class="st0" cx="104.1" cy="90.1" r="3.1"/>
		<path class="st0" d="M70.8,116.6c-7.2,0-13,5.8-13,13s5.8,13,13,13s13-5.8,13-13S78,116.6,70.8,116.6z M81.6,132.7
			c-0.3,0.9-1,2.9-2,3.3c0.1-0.1,0-2-0.1-2.2c0-0.5-0.1-1-0.2-1.5c-0.3-1.2-0.9-2.5-1.8-3.5c-0.7-0.7-1.5-1.2-2.5-1.5
			c-1-0.3-1.9-0.2-3-0.2c-1.3,0-2.9-0.3-3.9-1.1c-0.9-0.8-1.4-2-1.4-3.3c0.1-2.7,2.4-4.5,4.9-4.6c2.5-0.1,5.2,1,7,2.7
			c2.2,2,3.4,5,3.4,7.9C82.2,130.1,82,131.5,81.6,132.7z"/>
		<path class="st0" d="M70.8,87.3c-23.3,0-42.2,18.9-42.2,42.2c0,23.3,18.9,42.2,42.2,42.2c23.3,0,42.2-18.9,42.2-42.2
			C113,106.2,94.1,87.3,70.8,87.3z M70.8,166.2c-20.2,0-36.7-16.4-36.7-36.7c0-20.2,16.4-36.7,36.7-36.7c20.2,0,36.7,16.4,36.7,36.7
			C107.5,149.8,91.1,166.2,70.8,166.2z"/>
	</g>
	<g>
		<path class="st0" d="M13.7,297.5c0,0.6-0.2,1.1-0.6,1.5c-0.4,0.4-0.9,0.6-1.5,0.6h-7v11.8H1.9v-29.8h9.7c0.6,0,1.1,0.2,1.5,0.6
			c0.4,0.4,0.6,0.9,0.6,1.5V297.5z M11,297.2V284H4.5v13.3H11z"/>
		<path class="st0" d="M33.7,311.4h-2.8l-5.5-16l0.4-0.5h4.7v-11h-6.8v27.4H21v-29.8h10c0.6,0,1.1,0.2,1.5,0.6
			c0.4,0.4,0.6,0.9,0.6,1.5V295c0,1.4-1,2.2-2.9,2.2c-0.2,0-0.5,0-0.8,0c-0.4,0-0.6,0-0.8,0C30.3,301.9,32,306.6,33.7,311.4z"/>
		<path class="st0" d="M53.3,309.3c0,0.6-0.2,1.1-0.6,1.5s-0.9,0.6-1.5,0.6h-8.3c-0.6,0-1.1-0.2-1.5-0.6c-0.4-0.4-0.6-0.9-0.6-1.5
			v-25.6c0-0.6,0.2-1.1,0.6-1.5c0.4-0.4,0.9-0.6,1.5-0.6h8.3c0.6,0,1.1,0.2,1.5,0.6c0.4,0.4,0.6,0.9,0.6,1.5V309.3z M50.7,309.1V284
			h-7.3v25.1H50.7z"/>
		<path class="st0" d="M70.8,284h-6.9v11.3h6.4v2.4h-6.4v13.8h-2.6v-29.8h9.6V284z"/>
		<path class="st0" d="M87.3,311.4h-9.8v-29.8h9.7v2.3h-7v11.1h6.4v2.4h-6.4v11.6h7.1V311.4z"/>
		<path class="st0" d="M106.2,309.3c0,0.6-0.2,1.1-0.6,1.5c-0.4,0.4-0.9,0.6-1.5,0.6h-7.5c-0.6,0-1.1-0.2-1.5-0.6s-0.6-0.9-0.6-1.5
			v-7.6h2.6v7.3h6.4V302l-8.2-9.9c-0.6-0.7-0.9-1.4-0.9-2.3v-6c0-0.6,0.2-1.1,0.6-1.5c0.4-0.4,0.9-0.6,1.5-0.6h7.5
			c0.6,0,1.1,0.2,1.5,0.6c0.4,0.4,0.6,0.9,0.6,1.5v6.9h-2.6V284h-6.4v6.3l8.3,9.9c0.5,0.7,0.8,1.4,0.8,2.2V309.3z"/>
		<path class="st0" d="M125.6,309.3c0,0.6-0.2,1.1-0.6,1.5c-0.4,0.4-0.9,0.6-1.5,0.6H116c-0.6,0-1.1-0.2-1.5-0.6s-0.6-0.9-0.6-1.5
			v-7.6h2.6v7.3h6.4V302l-8.2-9.9c-0.6-0.7-0.9-1.4-0.9-2.3v-6c0-0.6,0.2-1.1,0.6-1.5c0.4-0.4,0.9-0.6,1.5-0.6h7.5
			c0.6,0,1.1,0.2,1.5,0.6c0.4,0.4,0.6,0.9,0.6,1.5v6.9H123V284h-6.4v6.3l8.3,9.9c0.5,0.7,0.8,1.4,0.8,2.2V309.3z"/>
		<path class="st0" d="M136.2,311.4h-2.6v-29.8h2.6V311.4z"/>
		<path class="st0" d="M156.9,309.3c0,0.6-0.2,1.1-0.6,1.5c-0.4,0.4-0.9,0.6-1.5,0.6h-8.3c-0.6,0-1.1-0.2-1.5-0.6
			c-0.4-0.4-0.6-0.9-0.6-1.5v-25.6c0-0.6,0.2-1.1,0.6-1.5c0.4-0.4,0.9-0.6,1.5-0.6h8.3c0.6,0,1.1,0.2,1.5,0.6
			c0.4,0.4,0.6,0.9,0.6,1.5V309.3z M154.2,309.1V284h-7.3v25.1H154.2z"/>
		<path class="st0" d="M177,311.4h-1.8l-8-21.9v21.9h-2.5v-29.8h2l7.8,21.5v-21.5h2.5V311.4z"/>
		<path class="st0" d="M196.9,311.4h-2.6l-1-6.6h-5.9l-1,6.6h-2.6v-0.1l5.3-29.8h2.6L196.9,311.4z M192.9,302.4l-2.6-16.1l-2.6,16.1
			H192.9z"/>
		<path class="st0" d="M213.1,311.4h-9.5v-29.8h2.6v27.4h6.9V311.4z"/>
		<path class="st0" d="M242.6,311.4H240l-1-6.6H233l-1,6.6h-2.6v-0.1l5.3-29.8h2.6L242.6,311.4z M238.6,302.4l-2.6-16.1l-2.6,16.1
			H238.6z"/>
		<path class="st0" d="M261.7,309.3c0,0.6-0.2,1.1-0.6,1.5c-0.4,0.4-0.9,0.6-1.5,0.6h-8.1c-0.6,0-1.1-0.2-1.5-0.6
			c-0.4-0.4-0.6-0.9-0.6-1.5v-27.7h2.6v27.4h7.1v-27.4h2.6V309.3z"/>
		<path class="st0" d="M281.8,306c0,1.6-0.5,2.9-1.6,3.9c-1,1-2.3,1.5-3.9,1.5h-6.8v-29.8h6.8c1.6,0,2.9,0.5,3.9,1.5
			s1.5,2.3,1.5,3.9V306z M279.2,305.8v-18.5c0-1-0.3-1.8-0.9-2.4c-0.6-0.6-1.4-0.9-2.4-0.9h-3.7v25.1h3.5c1,0,1.9-0.3,2.5-0.9
			C278.9,307.6,279.2,306.8,279.2,305.8z"/>
		<path class="st0" d="M292.4,311.4h-2.6v-29.8h2.6V311.4z"/>
		<path class="st0" d="M313.1,309.3c0,0.6-0.2,1.1-0.6,1.5s-0.9,0.6-1.5,0.6h-8.3c-0.6,0-1.1-0.2-1.5-0.6c-0.4-0.4-0.6-0.9-0.6-1.5
			v-25.6c0-0.6,0.2-1.1,0.6-1.5c0.4-0.4,0.9-0.6,1.5-0.6h8.3c0.6,0,1.1,0.2,1.5,0.6c0.4,0.4,0.6,0.9,0.6,1.5V309.3z M310.4,309.1
			V284h-7.3v25.1H310.4z"/>
		<path class="st0" d="M349.5,281.6l-4.1,29.9h-2.2l-3.2-22.5c0-0.4,0-1-0.1-1.8c0,0.4,0,1-0.1,1.8l-3.2,22.5h-2.2l-4.1-29.9h2.6
			l2.5,21.5c0,0.5,0,1.2,0.1,2.1c0-0.5,0-1.2,0.1-2.1l3.1-21.5h2.3l3.1,21.5c0,0.5,0,1.2,0.1,2.1c0-0.5,0-1.2,0.1-2.1l2.5-21.5
			H349.5z"/>
		<path class="st0" d="M368.7,309.3c0,0.6-0.2,1.1-0.6,1.5s-0.9,0.6-1.5,0.6h-8.3c-0.6,0-1.1-0.2-1.5-0.6c-0.4-0.4-0.6-0.9-0.6-1.5
			v-25.6c0-0.6,0.2-1.1,0.6-1.5c0.4-0.4,0.9-0.6,1.5-0.6h8.3c0.6,0,1.1,0.2,1.5,0.6c0.4,0.4,0.6,0.9,0.6,1.5V309.3z M366.1,309.1
			V284h-7.3v25.1H366.1z"/>
		<path class="st0" d="M389.3,311.4h-2.8l-5.5-16l0.4-0.5h4.7v-11h-6.8v27.4h-2.6v-29.8h10c0.6,0,1.1,0.2,1.5,0.6
			c0.4,0.4,0.6,0.9,0.6,1.5V295c0,1.4-1,2.2-2.9,2.2c-0.2,0-0.5,0-0.8,0c-0.4,0-0.6,0-0.8,0C385.9,301.9,387.6,306.6,389.3,311.4z"
			/>
		<path class="st0" d="M408.8,311.4h-2.9l-6.9-14.3v14.3h-2.6v-29.8h2.6V295l6.2-13.4h2.9v0.2l-6.7,14.2L408.8,311.4z"/>
	</g>
</g>
</svg>
